<svg width="380" height="100" viewBox="0 0 380 100" fill="none" xmlns="http://www.w3.org/2000/svg">
<path d="M98.995 25.825L87.12 16.675C86.3131 16.157 85.4357 15.7579 84.515 15.49C83.598 15.1932 82.6434 15.0282 81.68 15H47.5L51.505 40H81.68C82.5 40 83.525 39.815 84.51 39.51C85.495 39.205 86.445 38.785 87.115 38.33L98.99 29.17C99.665 28.715 100 28.11 100 27.5C100 26.89 99.665 26.285 98.995 25.825V25.825ZM42.5 5H37.5C36.837 5 36.2011 5.26339 35.7322 5.73223C35.2634 6.20107 35 6.83696 35 7.5V25H18.32C17.49 25 16.47 25.185 15.485 25.495C14.495 25.795 13.55 26.21 12.88 26.675L1.005 35.825C0.33 36.28 0 36.89 0 37.5C0 38.105 0.33 38.71 1.005 39.175L12.88 48.335C13.55 48.79 14.495 49.21 15.485 49.51C16.47 49.815 17.49 50 18.32 50H35V92.5C35 93.163 35.2634 93.7989 35.7322 94.2678C36.2011 94.7366 36.837 95 37.5 95H42.5C43.163 95 43.7989 94.7366 44.2678 94.2678C44.7366 93.7989 45 93.163 45 92.5V7.5C45 6.83696 44.7366 6.20107 44.2678 5.73223C43.7989 5.26339 43.163 5 42.5 5V5Z" fill="#F5F5F5"/>
<path d="M124.329 23.0146C124.329 24.2686 124.118 25.3643 123.696 26.3018C123.274 27.2334 122.677 27.9453 121.903 28.4375C121.13 28.9297 120.228 29.1758 119.196 29.1758C118.188 29.1758 117.295 28.9297 116.516 28.4375C115.736 27.9395 115.13 27.2334 114.696 26.3193C114.269 25.3994 114.049 24.3359 114.037 23.1289V22.2061C114.037 20.9756 114.251 19.8887 114.679 18.9453C115.106 18.002 115.71 17.2812 116.489 16.7832C117.274 16.2793 118.171 16.0273 119.179 16.0273C120.204 16.0273 121.106 16.2764 121.886 16.7744C122.671 17.2666 123.274 17.9844 123.696 18.9277C124.118 19.8652 124.329 20.958 124.329 22.2061V23.0146ZM122.65 22.1885C122.65 20.6709 122.346 19.5078 121.736 18.6992C121.127 17.8848 120.274 17.4775 119.179 17.4775C118.112 17.4775 117.271 17.8848 116.656 18.6992C116.047 19.5078 115.733 20.6328 115.716 22.0742V23.0146C115.716 24.4854 116.023 25.6426 116.639 26.4863C117.26 27.3242 118.112 27.7432 119.196 27.7432C120.286 27.7432 121.13 27.3477 121.728 26.5566C122.325 25.7598 122.633 24.6201 122.65 23.1377V22.1885ZM134.639 24.3506C134.639 25.7979 134.308 26.9639 133.646 27.8486C132.983 28.7334 132.087 29.1758 130.956 29.1758C129.802 29.1758 128.894 28.8096 128.231 28.0771V32.6562H126.605V19.4902H128.091L128.17 20.5449C128.832 19.7246 129.752 19.3145 130.93 19.3145C132.072 19.3145 132.975 19.7451 133.637 20.6064C134.305 21.4678 134.639 22.666 134.639 24.2012V24.3506ZM133.013 24.166C133.013 23.0938 132.784 22.2471 132.327 21.626C131.87 21.0049 131.243 20.6943 130.446 20.6943C129.462 20.6943 128.724 21.1309 128.231 22.0039V26.5479C128.718 27.415 129.462 27.8486 130.464 27.8486C131.243 27.8486 131.861 27.541 132.318 26.9258C132.781 26.3047 133.013 25.3848 133.013 24.166ZM142.584 29C142.49 28.8125 142.414 28.4785 142.355 27.998C141.6 28.7832 140.697 29.1758 139.648 29.1758C138.711 29.1758 137.94 28.9121 137.337 28.3848C136.739 27.8516 136.44 27.1777 136.44 26.3633C136.44 25.373 136.815 24.6055 137.565 24.0605C138.321 23.5098 139.382 23.2344 140.747 23.2344H142.329V22.4873C142.329 21.9189 142.159 21.4678 141.819 21.1338C141.479 20.7939 140.979 20.624 140.316 20.624C139.736 20.624 139.25 20.7705 138.857 21.0635C138.465 21.3564 138.269 21.7109 138.269 22.127H136.634C136.634 21.6523 136.801 21.1953 137.135 20.7559C137.475 20.3105 137.932 19.959 138.506 19.7012C139.086 19.4434 139.722 19.3145 140.413 19.3145C141.509 19.3145 142.367 19.5898 142.988 20.1406C143.609 20.6855 143.932 21.4385 143.955 22.3994V26.7764C143.955 27.6494 144.066 28.3438 144.289 28.8594V29H142.584ZM139.886 27.7607C140.396 27.7607 140.879 27.6289 141.336 27.3652C141.793 27.1016 142.124 26.7588 142.329 26.3369V24.3857H141.055C139.062 24.3857 138.066 24.9688 138.066 26.1348C138.066 26.6445 138.236 27.043 138.576 27.3301C138.916 27.6172 139.353 27.7607 139.886 27.7607ZM148.323 25.3877H146.855L146.741 16.2031H148.446L148.323 25.3877ZM146.68 28.1826C146.68 27.9189 146.759 27.6992 146.917 27.5234C147.081 27.3418 147.321 27.251 147.638 27.251C147.954 27.251 148.194 27.3418 148.358 27.5234C148.522 27.6992 148.604 27.9189 148.604 28.1826C148.604 28.4463 148.522 28.666 148.358 28.8418C148.194 29.0117 147.954 29.0967 147.638 29.0967C147.321 29.0967 147.081 29.0117 146.917 28.8418C146.759 28.666 146.68 28.4463 146.68 28.1826ZM152.964 25.3877H151.496L151.382 16.2031H153.087L152.964 25.3877ZM151.32 28.1826C151.32 27.9189 151.399 27.6992 151.558 27.5234C151.722 27.3418 151.962 27.251 152.278 27.251C152.595 27.251 152.835 27.3418 152.999 27.5234C153.163 27.6992 153.245 27.9189 153.245 28.1826C153.245 28.4463 153.163 28.666 152.999 28.8418C152.835 29.0117 152.595 29.0967 152.278 29.0967C151.962 29.0967 151.722 29.0117 151.558 28.8418C151.399 28.666 151.32 28.4463 151.32 28.1826ZM169.32 25.6602H163.958L162.754 29H161.014L165.901 16.2031H167.377L172.273 29H170.541L169.32 25.6602ZM164.468 24.2715H168.819L166.639 18.2861L164.468 24.2715ZM177.555 27.8486C178.135 27.8486 178.642 27.6729 179.076 27.3213C179.509 26.9697 179.749 26.5303 179.796 26.0029H181.334C181.305 26.5479 181.118 27.0664 180.772 27.5586C180.426 28.0508 179.963 28.4434 179.383 28.7363C178.809 29.0293 178.2 29.1758 177.555 29.1758C176.26 29.1758 175.229 28.7451 174.461 27.8838C173.7 27.0166 173.319 25.833 173.319 24.333V24.0605C173.319 23.1348 173.489 22.3115 173.829 21.5908C174.168 20.8701 174.655 20.3105 175.287 19.9121C175.926 19.5137 176.679 19.3145 177.546 19.3145C178.613 19.3145 179.497 19.6338 180.201 20.2725C180.91 20.9111 181.287 21.7402 181.334 22.7598H179.796C179.749 22.1445 179.515 21.6406 179.093 21.248C178.677 20.8496 178.162 20.6504 177.546 20.6504C176.72 20.6504 176.079 20.9492 175.621 21.5469C175.17 22.1387 174.945 22.9971 174.945 24.1221V24.4297C174.945 25.5254 175.17 26.3691 175.621 26.9609C176.073 27.5527 176.717 27.8486 177.555 27.8486ZM187.759 20.9492C187.513 20.9082 187.246 20.8877 186.959 20.8877C185.893 20.8877 185.169 21.3418 184.788 22.25V29H183.162V19.4902H184.745L184.771 20.5889C185.304 19.7393 186.06 19.3145 187.038 19.3145C187.355 19.3145 187.595 19.3555 187.759 19.4375V20.9492ZM193.033 29.1758C191.744 29.1758 190.695 28.7539 189.886 27.9102C189.078 27.0605 188.673 25.9268 188.673 24.5088V24.21C188.673 23.2666 188.852 22.4258 189.209 21.6875C189.573 20.9434 190.077 20.3633 190.721 19.9473C191.371 19.5254 192.075 19.3145 192.83 19.3145C194.067 19.3145 195.028 19.7217 195.713 20.5361C196.399 21.3506 196.742 22.5166 196.742 24.0342V24.7109H190.299C190.323 25.6484 190.595 26.4072 191.117 26.9873C191.644 27.5615 192.312 27.8486 193.121 27.8486C193.695 27.8486 194.181 27.7314 194.579 27.4971C194.978 27.2627 195.327 26.9521 195.625 26.5654L196.619 27.3389C195.822 28.5635 194.626 29.1758 193.033 29.1758ZM192.83 20.6504C192.174 20.6504 191.623 20.8906 191.178 21.3711C190.733 21.8457 190.457 22.5137 190.352 23.375H195.116V23.252C195.069 22.4258 194.846 21.7871 194.448 21.3359C194.049 20.8789 193.51 20.6504 192.83 20.6504ZM198.236 24.166C198.236 22.707 198.581 21.5352 199.273 20.6504C199.964 19.7598 200.87 19.3145 201.989 19.3145C203.102 19.3145 203.984 19.6953 204.634 20.457V15.5H206.26V29H204.766L204.687 27.9805C204.037 28.7773 203.131 29.1758 201.971 29.1758C200.87 29.1758 199.97 28.7246 199.273 27.8223C198.581 26.9199 198.236 25.7422 198.236 24.2891V24.166ZM199.862 24.3506C199.862 25.4287 200.084 26.2725 200.53 26.8818C200.975 27.4912 201.59 27.7959 202.375 27.7959C203.407 27.7959 204.16 27.333 204.634 26.4072V22.0391C204.148 21.1426 203.401 20.6943 202.393 20.6943C201.596 20.6943 200.975 21.002 200.53 21.6172C200.084 22.2324 199.862 23.1436 199.862 24.3506ZM210.558 29H208.932V19.4902H210.558V29ZM208.8 16.9678C208.8 16.7041 208.879 16.4814 209.037 16.2998C209.202 16.1182 209.442 16.0273 209.758 16.0273C210.075 16.0273 210.315 16.1182 210.479 16.2998C210.643 16.4814 210.725 16.7041 210.725 16.9678C210.725 17.2314 210.643 17.4512 210.479 17.627C210.315 17.8027 210.075 17.8906 209.758 17.8906C209.442 17.8906 209.202 17.8027 209.037 17.627C208.879 17.4512 208.8 17.2314 208.8 16.9678ZM215.374 17.1875V19.4902H217.15V20.7471H215.374V26.6445C215.374 27.0254 215.454 27.3125 215.612 27.5059C215.77 27.6934 216.039 27.7871 216.42 27.7871C216.608 27.7871 216.866 27.752 217.194 27.6816V29C216.766 29.1172 216.35 29.1758 215.946 29.1758C215.219 29.1758 214.671 28.9561 214.302 28.5166C213.933 28.0771 213.748 27.4531 213.748 26.6445V20.7471H212.017V19.4902H213.748V17.1875H215.374ZM218.451 24.1572C218.451 23.2256 218.632 22.3877 218.996 21.6436C219.365 20.8994 219.874 20.3252 220.525 19.9209C221.181 19.5166 221.928 19.3145 222.766 19.3145C224.061 19.3145 225.107 19.7627 225.904 20.6592C226.706 21.5557 227.108 22.748 227.108 24.2363V24.3506C227.108 25.2764 226.929 26.1084 226.572 26.8467C226.22 27.5791 225.713 28.1504 225.051 28.5605C224.395 28.9707 223.639 29.1758 222.784 29.1758C221.495 29.1758 220.449 28.7275 219.646 27.8311C218.849 26.9346 218.451 25.748 218.451 24.2715V24.1572ZM220.085 24.3506C220.085 25.4053 220.329 26.252 220.815 26.8906C221.307 27.5293 221.963 27.8486 222.784 27.8486C223.61 27.8486 224.266 27.5264 224.752 26.8818C225.239 26.2314 225.482 25.3232 225.482 24.1572C225.482 23.1143 225.233 22.2705 224.735 21.626C224.243 20.9756 223.586 20.6504 222.766 20.6504C221.963 20.6504 221.316 20.9697 220.824 21.6084C220.331 22.2471 220.085 23.1611 220.085 24.3506ZM234.965 24.166C234.965 22.6719 235.307 21.4912 235.993 20.624C236.679 19.751 237.598 19.3145 238.753 19.3145C239.878 19.3145 240.765 19.6924 241.416 20.4482L241.486 19.4902H242.98V32.6562H241.354V28.1211C240.698 28.8242 239.825 29.1758 238.735 29.1758C237.587 29.1758 236.67 28.7305 235.984 27.8398C235.304 26.9434 234.965 25.7568 234.965 24.2803V24.166ZM236.591 24.3506C236.591 25.4404 236.819 26.2959 237.276 26.917C237.739 27.5381 238.36 27.8486 239.139 27.8486C240.106 27.8486 240.845 27.4209 241.354 26.5654V21.9072C240.839 21.0693 240.106 20.6504 239.157 20.6504C238.372 20.6504 237.748 20.9639 237.285 21.5908C236.822 22.2119 236.591 23.1318 236.591 24.3506ZM251.462 28.0596C250.829 28.8037 249.9 29.1758 248.676 29.1758C247.662 29.1758 246.888 28.8828 246.355 28.2969C245.828 27.7051 245.561 26.832 245.555 25.6777V19.4902H247.181V25.6338C247.181 27.0752 247.767 27.7959 248.939 27.7959C250.181 27.7959 251.008 27.333 251.418 26.4072V19.4902H253.044V29H251.497L251.462 28.0596ZM259.469 29.1758C258.179 29.1758 257.131 28.7539 256.322 27.9102C255.513 27.0605 255.109 25.9268 255.109 24.5088V24.21C255.109 23.2666 255.288 22.4258 255.645 21.6875C256.009 20.9434 256.512 20.3633 257.157 19.9473C257.807 19.5254 258.511 19.3145 259.266 19.3145C260.503 19.3145 261.464 19.7217 262.149 20.5361C262.835 21.3506 263.178 22.5166 263.178 24.0342V24.7109H256.735C256.759 25.6484 257.031 26.4072 257.553 26.9873C258.08 27.5615 258.748 27.8486 259.556 27.8486C260.131 27.8486 260.617 27.7314 261.015 27.4971C261.414 27.2627 261.762 26.9521 262.061 26.5654L263.054 27.3389C262.258 28.5635 261.062 29.1758 259.469 29.1758ZM259.266 20.6504C258.61 20.6504 258.059 20.8906 257.614 21.3711C257.169 21.8457 256.893 22.5137 256.788 23.375H261.552V23.252C261.505 22.4258 261.282 21.7871 260.884 21.3359C260.485 20.8789 259.946 20.6504 259.266 20.6504ZM273.047 29H271.421V19.4902H273.047V29ZM271.289 16.9678C271.289 16.7041 271.368 16.4814 271.527 16.2998C271.691 16.1182 271.931 16.0273 272.247 16.0273C272.564 16.0273 272.804 16.1182 272.968 16.2998C273.132 16.4814 273.214 16.7041 273.214 16.9678C273.214 17.2314 273.132 17.4512 272.968 17.627C272.804 17.8027 272.564 17.8906 272.247 17.8906C271.931 17.8906 271.691 17.8027 271.527 17.627C271.368 17.4512 271.289 17.2314 271.289 16.9678ZM281.195 26.4775C281.195 26.0381 281.028 25.6982 280.694 25.458C280.365 25.2119 279.788 25.001 278.962 24.8252C278.142 24.6494 277.488 24.4385 277.002 24.1924C276.522 23.9463 276.164 23.6533 275.93 23.3135C275.701 22.9736 275.587 22.5693 275.587 22.1006C275.587 21.3213 275.915 20.6621 276.571 20.123C277.234 19.584 278.077 19.3145 279.103 19.3145C280.181 19.3145 281.054 19.5928 281.722 20.1494C282.396 20.7061 282.733 21.418 282.733 22.2852H281.098C281.098 21.8398 280.907 21.4561 280.527 21.1338C280.152 20.8115 279.677 20.6504 279.103 20.6504C278.511 20.6504 278.048 20.7793 277.714 21.0371C277.38 21.2949 277.213 21.6318 277.213 22.0479C277.213 22.4404 277.368 22.7363 277.679 22.9355C277.989 23.1348 278.549 23.3252 279.358 23.5068C280.172 23.6885 280.831 23.9053 281.335 24.1572C281.839 24.4092 282.211 24.7139 282.451 25.0713C282.697 25.4229 282.821 25.8535 282.821 26.3633C282.821 27.2129 282.481 27.8955 281.801 28.4111C281.121 28.9209 280.239 29.1758 279.155 29.1758C278.394 29.1758 277.72 29.041 277.134 28.7715C276.548 28.502 276.088 28.127 275.754 27.6465C275.426 27.1602 275.262 26.6357 275.262 26.0732H276.888C276.917 26.6182 277.134 27.0518 277.538 27.374C277.948 27.6904 278.488 27.8486 279.155 27.8486C279.771 27.8486 280.263 27.7256 280.632 27.4795C281.007 27.2275 281.195 26.8936 281.195 26.4775ZM290.476 26.4775C290.476 26.0381 290.309 25.6982 289.975 25.458C289.647 25.2119 289.07 25.001 288.243 24.8252C287.423 24.6494 286.77 24.4385 286.283 24.1924C285.803 23.9463 285.446 23.6533 285.211 23.3135C284.983 22.9736 284.868 22.5693 284.868 22.1006C284.868 21.3213 285.196 20.6621 285.853 20.123C286.515 19.584 287.359 19.3145 288.384 19.3145C289.462 19.3145 290.335 19.5928 291.003 20.1494C291.677 20.7061 292.014 21.418 292.014 22.2852H290.379C290.379 21.8398 290.189 21.4561 289.808 21.1338C289.433 20.8115 288.958 20.6504 288.384 20.6504C287.792 20.6504 287.329 20.7793 286.995 21.0371C286.661 21.2949 286.494 21.6318 286.494 22.0479C286.494 22.4404 286.65 22.7363 286.96 22.9355C287.271 23.1348 287.83 23.3252 288.639 23.5068C289.453 23.6885 290.113 23.9053 290.616 24.1572C291.12 24.4092 291.492 24.7139 291.733 25.0713C291.979 25.4229 292.102 25.8535 292.102 26.3633C292.102 27.2129 291.762 27.8955 291.082 28.4111C290.403 28.9209 289.521 29.1758 288.437 29.1758C287.675 29.1758 287.001 29.041 286.415 28.7715C285.829 28.502 285.369 28.127 285.035 27.6465C284.707 27.1602 284.543 26.6357 284.543 26.0732H286.169C286.198 26.6182 286.415 27.0518 286.82 27.374C287.23 27.6904 287.769 27.8486 288.437 27.8486C289.052 27.8486 289.544 27.7256 289.913 27.4795C290.288 27.2275 290.476 26.8936 290.476 26.4775ZM293.789 24.1572C293.789 23.2256 293.971 22.3877 294.334 21.6436C294.703 20.8994 295.213 20.3252 295.863 19.9209C296.52 19.5166 297.267 19.3145 298.105 19.3145C299.4 19.3145 300.446 19.7627 301.242 20.6592C302.045 21.5557 302.446 22.748 302.446 24.2363V24.3506C302.446 25.2764 302.268 26.1084 301.91 26.8467C301.559 27.5791 301.052 28.1504 300.39 28.5605C299.734 28.9707 298.978 29.1758 298.122 29.1758C296.833 29.1758 295.787 28.7275 294.985 27.8311C294.188 26.9346 293.789 25.748 293.789 24.2715V24.1572ZM295.424 24.3506C295.424 25.4053 295.667 26.252 296.154 26.8906C296.646 27.5293 297.302 27.8486 298.122 27.8486C298.948 27.8486 299.605 27.5264 300.091 26.8818C300.577 26.2314 300.821 25.3232 300.821 24.1572C300.821 23.1143 300.571 22.2705 300.073 21.626C299.581 20.9756 298.925 20.6504 298.105 20.6504C297.302 20.6504 296.654 20.9697 296.162 21.6084C295.67 22.2471 295.424 23.1611 295.424 24.3506ZM316.57 29C316.476 28.8125 316.4 28.4785 316.341 27.998C315.586 28.7832 314.683 29.1758 313.634 29.1758C312.697 29.1758 311.926 28.9121 311.323 28.3848C310.725 27.8516 310.426 27.1777 310.426 26.3633C310.426 25.373 310.801 24.6055 311.551 24.0605C312.307 23.5098 313.368 23.2344 314.733 23.2344H316.315V22.4873C316.315 21.9189 316.145 21.4678 315.805 21.1338C315.465 20.7939 314.964 20.624 314.302 20.624C313.722 20.624 313.236 20.7705 312.843 21.0635C312.451 21.3564 312.254 21.7109 312.254 22.127H310.62C310.62 21.6523 310.787 21.1953 311.121 20.7559C311.461 20.3105 311.918 19.959 312.492 19.7012C313.072 19.4434 313.708 19.3145 314.399 19.3145C315.495 19.3145 316.353 19.5898 316.974 20.1406C317.595 20.6855 317.918 21.4385 317.941 22.3994V26.7764C317.941 27.6494 318.052 28.3438 318.275 28.8594V29H316.57ZM313.872 27.7607C314.381 27.7607 314.865 27.6289 315.322 27.3652C315.779 27.1016 316.11 26.7588 316.315 26.3369V24.3857H315.041C313.048 24.3857 312.052 24.9688 312.052 26.1348C312.052 26.6445 312.222 27.043 312.562 27.3301C312.902 27.6172 313.338 27.7607 313.872 27.7607ZM320.094 24.166C320.094 22.6719 320.437 21.4912 321.123 20.624C321.808 19.751 322.728 19.3145 323.882 19.3145C325.007 19.3145 325.895 19.6924 326.546 20.4482L326.616 19.4902H328.11V32.6562H326.484V28.1211C325.828 28.8242 324.955 29.1758 323.865 29.1758C322.716 29.1758 321.799 28.7305 321.114 27.8398C320.434 26.9434 320.094 25.7568 320.094 24.2803V24.166ZM321.72 24.3506C321.72 25.4404 321.949 26.2959 322.406 26.917C322.869 27.5381 323.49 27.8486 324.269 27.8486C325.236 27.8486 325.974 27.4209 326.484 26.5654V21.9072C325.968 21.0693 325.236 20.6504 324.287 20.6504C323.502 20.6504 322.878 20.9639 322.415 21.5908C321.952 22.2119 321.72 23.1318 321.72 24.3506ZM336.591 28.0596C335.959 28.8037 335.03 29.1758 333.805 29.1758C332.792 29.1758 332.018 28.8828 331.485 28.2969C330.958 27.7051 330.691 26.832 330.685 25.6777V19.4902H332.311V25.6338C332.311 27.0752 332.897 27.7959 334.069 27.7959C335.311 27.7959 336.137 27.333 336.547 26.4072V19.4902H338.173V29H336.627L336.591 28.0596ZM342.419 29H340.793V19.4902H342.419V29ZM340.661 16.9678C340.661 16.7041 340.74 16.4814 340.898 16.2998C341.062 16.1182 341.302 16.0273 341.619 16.0273C341.935 16.0273 342.175 16.1182 342.339 16.2998C342.504 16.4814 342.586 16.7041 342.586 16.9678C342.586 17.2314 342.504 17.4512 342.339 17.627C342.175 17.8027 341.935 17.8906 341.619 17.8906C341.302 17.8906 341.062 17.8027 340.898 17.627C340.74 17.4512 340.661 17.2314 340.661 16.9678ZM352.78 19.4902L352.833 20.6855C353.56 19.7715 354.509 19.3145 355.681 19.3145C357.69 19.3145 358.704 20.4482 358.722 22.7158V29H357.096V22.707C357.09 22.0215 356.932 21.5146 356.621 21.1865C356.316 20.8584 355.839 20.6943 355.188 20.6943C354.661 20.6943 354.198 20.835 353.8 21.1162C353.401 21.3975 353.091 21.7666 352.868 22.2236V29H351.242V19.4902H352.78ZM367.045 29C366.951 28.8125 366.875 28.4785 366.816 27.998C366.061 28.7832 365.158 29.1758 364.109 29.1758C363.172 29.1758 362.401 28.9121 361.798 28.3848C361.2 27.8516 360.901 27.1777 360.901 26.3633C360.901 25.373 361.276 24.6055 362.026 24.0605C362.782 23.5098 363.843 23.2344 365.208 23.2344H366.79V22.4873C366.79 21.9189 366.62 21.4678 366.28 21.1338C365.94 20.7939 365.439 20.624 364.777 20.624C364.197 20.624 363.711 20.7705 363.318 21.0635C362.926 21.3564 362.729 21.7109 362.729 22.127H361.095C361.095 21.6523 361.262 21.1953 361.596 20.7559C361.936 20.3105 362.393 19.959 362.967 19.7012C363.547 19.4434 364.183 19.3145 364.874 19.3145C365.97 19.3145 366.828 19.5898 367.449 20.1406C368.07 20.6855 368.393 21.4385 368.416 22.3994V26.7764C368.416 27.6494 368.527 28.3438 368.75 28.8594V29H367.045ZM364.347 27.7607C364.856 27.7607 365.34 27.6289 365.797 27.3652C366.254 27.1016 366.585 26.7588 366.79 26.3369V24.3857H365.516C363.523 24.3857 362.527 24.9688 362.527 26.1348C362.527 26.6445 362.697 27.043 363.037 27.3301C363.377 27.6172 363.813 27.7607 364.347 27.7607ZM368.17 15.7812C368.17 16.4141 367.988 16.9268 367.625 17.3193C367.268 17.7119 366.819 17.9082 366.28 17.9082C366.04 17.9082 365.832 17.8789 365.656 17.8203C365.48 17.7617 365.249 17.6416 364.962 17.46C364.681 17.2783 364.476 17.1699 364.347 17.1348C364.224 17.0938 364.08 17.0732 363.916 17.0732C363.676 17.0732 363.471 17.167 363.301 17.3545C363.131 17.5361 363.046 17.7705 363.046 18.0576L361.956 17.9961C361.956 17.3691 362.132 16.8506 362.483 16.4404C362.841 16.0303 363.292 15.8252 363.837 15.8252C364.042 15.8252 364.227 15.8545 364.391 15.9131C364.555 15.9717 364.777 16.0859 365.059 16.2559C365.34 16.4258 365.554 16.5371 365.7 16.5898C365.853 16.6426 366.02 16.6689 366.201 16.6689C366.453 16.6689 366.661 16.5693 366.825 16.3701C366.995 16.1709 367.08 15.9395 367.08 15.6758L368.17 15.7812ZM370.534 24.1572C370.534 23.2256 370.716 22.3877 371.079 21.6436C371.448 20.8994 371.958 20.3252 372.608 19.9209C373.265 19.5166 374.012 19.3145 374.85 19.3145C376.145 19.3145 377.19 19.7627 377.987 20.6592C378.79 21.5557 379.191 22.748 379.191 24.2363V24.3506C379.191 25.2764 379.013 26.1084 378.655 26.8467C378.304 27.5791 377.797 28.1504 377.135 28.5605C376.479 28.9707 375.723 29.1758 374.867 29.1758C373.578 29.1758 372.532 28.7275 371.729 27.8311C370.933 26.9346 370.534 25.748 370.534 24.2715V24.1572ZM372.169 24.3506C372.169 25.4053 372.412 26.252 372.898 26.8906C373.391 27.5293 374.047 27.8486 374.867 27.8486C375.693 27.8486 376.35 27.5264 376.836 26.8818C377.322 26.2314 377.565 25.3232 377.565 24.1572C377.565 23.1143 377.316 22.2705 376.818 21.626C376.326 20.9756 375.67 20.6504 374.85 20.6504C374.047 20.6504 373.399 20.9697 372.907 21.6084C372.415 22.2471 372.169 23.1611 372.169 24.3506ZM118.177 50.1758C116.888 50.1758 115.839 49.7539 115.03 48.9102C114.222 48.0605 113.817 46.9268 113.817 45.5088V45.21C113.817 44.2666 113.996 43.4258 114.354 42.6875C114.717 41.9434 115.221 41.3633 115.865 40.9473C116.516 40.5254 117.219 40.3145 117.975 40.3145C119.211 40.3145 120.172 40.7217 120.857 41.5361C121.543 42.3506 121.886 43.5166 121.886 45.0342V45.7109H115.443C115.467 46.6484 115.739 47.4072 116.261 47.9873C116.788 48.5615 117.456 48.8486 118.265 48.8486C118.839 48.8486 119.325 48.7314 119.724 48.4971C120.122 48.2627 120.471 47.9521 120.77 47.5654L121.763 48.3389C120.966 49.5635 119.771 50.1758 118.177 50.1758ZM117.975 41.6504C117.318 41.6504 116.768 41.8906 116.322 42.3711C115.877 42.8457 115.602 43.5137 115.496 44.375H120.26V44.252C120.213 43.4258 119.99 42.7871 119.592 42.3359C119.193 41.8789 118.654 41.6504 117.975 41.6504ZM118.766 36.5H120.734L118.379 39.084H117.069L118.766 36.5ZM129.465 45.1572C129.465 44.2256 129.647 43.3877 130.01 42.6436C130.379 41.8994 130.889 41.3252 131.539 40.9209C132.196 40.5166 132.943 40.3145 133.781 40.3145C135.076 40.3145 136.122 40.7627 136.918 41.6592C137.721 42.5557 138.122 43.748 138.122 45.2363V45.3506C138.122 46.2764 137.944 47.1084 137.586 47.8467C137.235 48.5791 136.728 49.1504 136.066 49.5605C135.41 49.9707 134.654 50.1758 133.798 50.1758C132.509 50.1758 131.463 49.7275 130.661 48.8311C129.864 47.9346 129.465 46.748 129.465 45.2715V45.1572ZM131.1 45.3506C131.1 46.4053 131.343 47.252 131.83 47.8906C132.322 48.5293 132.978 48.8486 133.798 48.8486C134.624 48.8486 135.281 48.5264 135.767 47.8818C136.253 47.2314 136.497 46.3232 136.497 45.1572C136.497 44.1143 136.247 43.2705 135.749 42.626C135.257 41.9756 134.601 41.6504 133.781 41.6504C132.978 41.6504 132.33 41.9697 131.838 42.6084C131.346 43.2471 131.1 44.1611 131.1 45.3506ZM151.819 47.4775C151.819 47.0381 151.652 46.6982 151.318 46.458C150.99 46.2119 150.413 46.001 149.587 45.8252C148.766 45.6494 148.113 45.4385 147.627 45.1924C147.146 44.9463 146.789 44.6533 146.555 44.3135C146.326 43.9736 146.212 43.5693 146.212 43.1006C146.212 42.3213 146.54 41.6621 147.196 41.123C147.858 40.584 148.702 40.3145 149.727 40.3145C150.806 40.3145 151.679 40.5928 152.347 41.1494C153.02 41.7061 153.357 42.418 153.357 43.2852H151.723C151.723 42.8398 151.532 42.4561 151.151 42.1338C150.776 41.8115 150.302 41.6504 149.727 41.6504C149.136 41.6504 148.673 41.7793 148.339 42.0371C148.005 42.2949 147.838 42.6318 147.838 43.0479C147.838 43.4404 147.993 43.7363 148.304 43.9355C148.614 44.1348 149.174 44.3252 149.982 44.5068C150.797 44.6885 151.456 44.9053 151.96 45.1572C152.464 45.4092 152.836 45.7139 153.076 46.0713C153.322 46.4229 153.445 46.8535 153.445 47.3633C153.445 48.2129 153.105 48.8955 152.426 49.4111C151.746 49.9209 150.864 50.1758 149.78 50.1758C149.018 50.1758 148.345 50.041 147.759 49.7715C147.173 49.502 146.713 49.127 146.379 48.6465C146.051 48.1602 145.887 47.6357 145.887 47.0732H147.513C147.542 47.6182 147.759 48.0518 148.163 48.374C148.573 48.6904 149.112 48.8486 149.78 48.8486C150.395 48.8486 150.888 48.7256 151.257 48.4795C151.632 48.2275 151.819 47.8936 151.819 47.4775ZM159.51 50.1758C158.221 50.1758 157.172 49.7539 156.363 48.9102C155.555 48.0605 155.15 46.9268 155.15 45.5088V45.21C155.15 44.2666 155.329 43.4258 155.686 42.6875C156.05 41.9434 156.554 41.3633 157.198 40.9473C157.848 40.5254 158.552 40.3145 159.307 40.3145C160.544 40.3145 161.505 40.7217 162.19 41.5361C162.876 42.3506 163.219 43.5166 163.219 45.0342V45.7109H156.776C156.8 46.6484 157.072 47.4072 157.594 47.9873C158.121 48.5615 158.789 48.8486 159.598 48.8486C160.172 48.8486 160.658 48.7314 161.056 48.4971C161.455 48.2627 161.804 47.9521 162.102 47.5654L163.096 48.3389C162.299 49.5635 161.103 50.1758 159.51 50.1758ZM159.307 41.6504C158.651 41.6504 158.1 41.8906 157.655 42.3711C157.21 42.8457 156.934 43.5137 156.829 44.375H161.593V44.252C161.546 43.4258 161.323 42.7871 160.925 42.3359C160.526 41.8789 159.987 41.6504 159.307 41.6504ZM170.979 49.0596C170.347 49.8037 169.418 50.1758 168.193 50.1758C167.18 50.1758 166.406 49.8828 165.873 49.2969C165.346 48.7051 165.079 47.832 165.073 46.6777V40.4902H166.699V46.6338C166.699 48.0752 167.285 48.7959 168.457 48.7959C169.699 48.7959 170.525 48.333 170.935 47.4072V40.4902H172.561V50H171.015L170.979 49.0596ZM182.927 50H181.301V36.5H182.927V50ZM191.408 49.0596C190.776 49.8037 189.847 50.1758 188.622 50.1758C187.609 50.1758 186.835 49.8828 186.302 49.2969C185.775 48.7051 185.508 47.832 185.502 46.6777V40.4902H187.128V46.6338C187.128 48.0752 187.714 48.7959 188.886 48.7959C190.128 48.7959 190.954 48.333 191.365 47.4072V40.4902H192.991V50H191.444L191.408 49.0596ZM195.082 45.166C195.082 43.6836 195.425 42.5059 196.111 41.6328C196.796 40.7539 197.704 40.3145 198.835 40.3145C199.995 40.3145 200.901 40.7246 201.551 41.5449L201.63 40.4902H203.116V49.7715C203.116 51.002 202.749 51.9717 202.017 52.6807C201.29 53.3896 200.312 53.7441 199.081 53.7441C198.396 53.7441 197.725 53.5977 197.069 53.3047C196.412 53.0117 195.911 52.6104 195.566 52.1006L196.409 51.125C197.107 51.9863 197.959 52.417 198.967 52.417C199.758 52.417 200.373 52.1943 200.813 51.749C201.258 51.3037 201.481 50.6768 201.481 49.8682V49.0508C200.83 49.8008 199.943 50.1758 198.818 50.1758C197.704 50.1758 196.802 49.7275 196.111 48.8311C195.425 47.9346 195.082 46.7129 195.082 45.166ZM196.717 45.3506C196.717 46.4229 196.937 47.2666 197.376 47.8818C197.816 48.4912 198.431 48.7959 199.222 48.7959C200.247 48.7959 201 48.3301 201.481 47.3984V43.0566C200.983 42.1484 200.236 41.6943 199.24 41.6943C198.449 41.6943 197.83 42.002 197.385 42.6172C196.94 43.2324 196.717 44.1436 196.717 45.3506ZM211.448 50C211.354 49.8125 211.278 49.4785 211.219 48.998C210.463 49.7832 209.561 50.1758 208.512 50.1758C207.575 50.1758 206.804 49.9121 206.2 49.3848C205.603 48.8516 205.304 48.1777 205.304 47.3633C205.304 46.373 205.679 45.6055 206.429 45.0605C207.185 44.5098 208.245 44.2344 209.611 44.2344H211.193V43.4873C211.193 42.9189 211.023 42.4678 210.683 42.1338C210.343 41.7939 209.842 41.624 209.18 41.624C208.6 41.624 208.114 41.7705 207.721 42.0635C207.328 42.3564 207.132 42.7109 207.132 43.127H205.497C205.497 42.6523 205.664 42.1953 205.998 41.7559C206.338 41.3105 206.795 40.959 207.369 40.7012C207.95 40.4434 208.585 40.3145 209.277 40.3145C210.372 40.3145 211.231 40.5898 211.852 41.1406C212.473 41.6855 212.795 42.4385 212.819 43.3994V47.7764C212.819 48.6494 212.93 49.3438 213.153 49.8594V50H211.448ZM208.749 48.7607C209.259 48.7607 209.742 48.6289 210.2 48.3652C210.657 48.1016 210.988 47.7588 211.193 47.3369V45.3857H209.918C207.926 45.3857 206.93 45.9688 206.93 47.1348C206.93 47.6445 207.1 48.043 207.44 48.3301C207.78 48.6172 208.216 48.7607 208.749 48.7607ZM219.964 41.9492C219.718 41.9082 219.451 41.8877 219.164 41.8877C218.098 41.8877 217.374 42.3418 216.993 43.25V50H215.367V40.4902H216.95L216.976 41.5889C217.509 40.7393 218.265 40.3145 219.243 40.3145C219.56 40.3145 219.8 40.3555 219.964 40.4375V41.9492ZM220.325 52.5488L219.402 51.916C219.952 51.1484 220.24 50.3574 220.263 49.543V48.0752H221.854V49.3496C221.854 49.9414 221.707 50.5332 221.414 51.125C221.127 51.7168 220.764 52.1914 220.325 52.5488ZM233.169 47.7939L235.524 40.4902H237.185L233.775 50H232.536L229.091 40.4902H230.752L233.169 47.7939ZM242.573 50.1758C241.284 50.1758 240.235 49.7539 239.426 48.9102C238.618 48.0605 238.214 46.9268 238.214 45.5088V45.21C238.214 44.2666 238.392 43.4258 238.75 42.6875C239.113 41.9434 239.617 41.3633 240.261 40.9473C240.912 40.5254 241.615 40.3145 242.371 40.3145C243.607 40.3145 244.568 40.7217 245.254 41.5361C245.939 42.3506 246.282 43.5166 246.282 45.0342V45.7109H239.84C239.863 46.6484 240.135 47.4072 240.657 47.9873C241.184 48.5615 241.852 48.8486 242.661 48.8486C243.235 48.8486 243.721 48.7314 244.12 48.4971C244.518 48.2627 244.867 47.9521 245.166 47.5654L246.159 48.3389C245.362 49.5635 244.167 50.1758 242.573 50.1758ZM242.371 41.6504C241.715 41.6504 241.164 41.8906 240.718 42.3711C240.273 42.8457 239.998 43.5137 239.892 44.375H244.656V44.252C244.609 43.4258 244.386 42.7871 243.988 42.3359C243.59 41.8789 243.05 41.6504 242.371 41.6504ZM252.768 41.9492C252.522 41.9082 252.256 41.8877 251.968 41.8877C250.902 41.8877 250.178 42.3418 249.798 43.25V50H248.172V40.4902H249.754L249.78 41.5889C250.313 40.7393 251.069 40.3145 252.048 40.3145C252.364 40.3145 252.604 40.3555 252.768 40.4375V41.9492ZM256.038 50H254.412V40.4902H256.038V50ZM254.28 37.9678C254.28 37.7041 254.359 37.4814 254.517 37.2998C254.681 37.1182 254.922 37.0273 255.238 37.0273C255.554 37.0273 255.795 37.1182 255.959 37.2998C256.123 37.4814 256.205 37.7041 256.205 37.9678C256.205 38.2314 256.123 38.4512 255.959 38.627C255.795 38.8027 255.554 38.8906 255.238 38.8906C254.922 38.8906 254.681 38.8027 254.517 38.627C254.359 38.4512 254.28 38.2314 254.28 37.9678ZM259.193 50V41.7471H257.69V40.4902H259.193V39.6816C259.193 38.6211 259.495 37.7949 260.098 37.2031C260.708 36.6113 261.566 36.3154 262.674 36.3154C263.33 36.3154 264.159 36.4941 265.161 36.8516L264.888 38.2227C264.156 37.9297 263.459 37.7832 262.797 37.7832C262.099 37.7832 261.595 37.9414 261.285 38.2578C260.98 38.5684 260.828 39.0371 260.828 39.6641V40.4902H262.77V41.7471H260.828V50H259.193ZM265.969 50H264.335V40.4902H265.969V50ZM272.429 48.8486C273.009 48.8486 273.516 48.6729 273.95 48.3213C274.384 47.9697 274.624 47.5303 274.671 47.0029H276.209C276.179 47.5479 275.992 48.0664 275.646 48.5586C275.301 49.0508 274.838 49.4434 274.258 49.7363C273.683 50.0293 273.074 50.1758 272.429 50.1758C271.134 50.1758 270.103 49.7451 269.336 48.8838C268.574 48.0166 268.193 46.833 268.193 45.333V45.0605C268.193 44.1348 268.363 43.3115 268.703 42.5908C269.043 41.8701 269.529 41.3105 270.162 40.9121C270.801 40.5137 271.553 40.3145 272.421 40.3145C273.487 40.3145 274.372 40.6338 275.075 41.2725C275.784 41.9111 276.162 42.7402 276.209 43.7598H274.671C274.624 43.1445 274.389 42.6406 273.967 42.248C273.551 41.8496 273.036 41.6504 272.421 41.6504C271.594 41.6504 270.953 41.9492 270.496 42.5469C270.045 43.1387 269.819 43.9971 269.819 45.1221V45.4297C269.819 46.5254 270.045 47.3691 270.496 47.9609C270.947 48.5527 271.592 48.8486 272.429 48.8486ZM283.908 50C283.814 49.8125 283.738 49.4785 283.679 48.998C282.924 49.7832 282.021 50.1758 280.972 50.1758C280.035 50.1758 279.264 49.9121 278.661 49.3848C278.063 48.8516 277.764 48.1777 277.764 47.3633C277.764 46.373 278.139 45.6055 278.889 45.0605C279.645 44.5098 280.706 44.2344 282.071 44.2344H283.653V43.4873C283.653 42.9189 283.483 42.4678 283.143 42.1338C282.803 41.7939 282.302 41.624 281.64 41.624C281.06 41.624 280.574 41.7705 280.181 42.0635C279.789 42.3564 279.592 42.7109 279.592 43.127H277.958C277.958 42.6523 278.125 42.1953 278.459 41.7559C278.799 41.3105 279.256 40.959 279.83 40.7012C280.41 40.4434 281.046 40.3145 281.737 40.3145C282.833 40.3145 283.691 40.5898 284.312 41.1406C284.933 41.6855 285.256 42.4385 285.279 43.3994V47.7764C285.279 48.6494 285.39 49.3438 285.613 49.8594V50H283.908ZM281.21 48.7607C281.719 48.7607 282.203 48.6289 282.66 48.3652C283.117 48.1016 283.448 47.7588 283.653 47.3369V45.3857H282.379C280.386 45.3857 279.39 45.9688 279.39 47.1348C279.39 47.6445 279.56 48.043 279.9 48.3301C280.24 48.6172 280.676 48.7607 281.21 48.7607ZM299.485 47.4775C299.485 47.0381 299.318 46.6982 298.985 46.458C298.656 46.2119 298.079 46.001 297.253 45.8252C296.433 45.6494 295.779 45.4385 295.293 45.1924C294.813 44.9463 294.455 44.6533 294.221 44.3135C293.992 43.9736 293.878 43.5693 293.878 43.1006C293.878 42.3213 294.206 41.6621 294.862 41.123C295.525 40.584 296.368 40.3145 297.394 40.3145C298.472 40.3145 299.345 40.5928 300.013 41.1494C300.687 41.7061 301.024 42.418 301.024 43.2852H299.389C299.389 42.8398 299.198 42.4561 298.818 42.1338C298.443 41.8115 297.968 41.6504 297.394 41.6504C296.802 41.6504 296.339 41.7793 296.005 42.0371C295.671 42.2949 295.504 42.6318 295.504 43.0479C295.504 43.4404 295.659 43.7363 295.97 43.9355C296.28 44.1348 296.84 44.3252 297.649 44.5068C298.463 44.6885 299.122 44.9053 299.626 45.1572C300.13 45.4092 300.502 45.7139 300.742 46.0713C300.988 46.4229 301.111 46.8535 301.111 47.3633C301.111 48.2129 300.772 48.8955 300.092 49.4111C299.412 49.9209 298.53 50.1758 297.446 50.1758C296.685 50.1758 296.011 50.041 295.425 49.7715C294.839 49.502 294.379 49.127 294.045 48.6465C293.717 48.1602 293.553 47.6357 293.553 47.0732H295.179C295.208 47.6182 295.425 48.0518 295.829 48.374C296.239 48.6904 296.778 48.8486 297.446 48.8486C298.062 48.8486 298.554 48.7256 298.923 48.4795C299.298 48.2275 299.485 47.8936 299.485 47.4775ZM309.101 49.0596C308.468 49.8037 307.539 50.1758 306.315 50.1758C305.301 50.1758 304.527 49.8828 303.994 49.2969C303.467 48.7051 303.2 47.832 303.194 46.6777V40.4902H304.82V46.6338C304.82 48.0752 305.406 48.7959 306.578 48.7959C307.82 48.7959 308.647 48.333 309.057 47.4072V40.4902H310.683V50H309.136L309.101 49.0596ZM319.032 50C318.939 49.8125 318.862 49.4785 318.804 48.998C318.048 49.7832 317.146 50.1758 316.097 50.1758C315.159 50.1758 314.389 49.9121 313.785 49.3848C313.188 48.8516 312.889 48.1777 312.889 47.3633C312.889 46.373 313.264 45.6055 314.014 45.0605C314.77 44.5098 315.83 44.2344 317.195 44.2344H318.777V43.4873C318.777 42.9189 318.608 42.4678 318.268 42.1338C317.928 41.7939 317.427 41.624 316.765 41.624C316.185 41.624 315.698 41.7705 315.306 42.0635C314.913 42.3564 314.717 42.7109 314.717 43.127H313.082C313.082 42.6523 313.249 42.1953 313.583 41.7559C313.923 41.3105 314.38 40.959 314.954 40.7012C315.534 40.4434 316.17 40.3145 316.861 40.3145C317.957 40.3145 318.816 40.5898 319.437 41.1406C320.058 41.6855 320.38 42.4385 320.403 43.3994V47.7764C320.403 48.6494 320.515 49.3438 320.737 49.8594V50H319.032ZM316.334 48.7607C316.844 48.7607 317.327 48.6289 317.784 48.3652C318.241 48.1016 318.572 47.7588 318.777 47.3369V45.3857H317.503C315.511 45.3857 314.515 45.9688 314.515 47.1348C314.515 47.6445 314.685 48.043 315.025 48.3301C315.364 48.6172 315.801 48.7607 316.334 48.7607ZM333.67 41.9492C333.423 41.9082 333.157 41.8877 332.87 41.8877C331.803 41.8877 331.08 42.3418 330.699 43.25V50H329.073V40.4902H330.655L330.681 41.5889C331.214 40.7393 331.97 40.3145 332.949 40.3145C333.265 40.3145 333.505 40.3555 333.67 40.4375V41.9492ZM334.566 45.1572C334.566 44.2256 334.748 43.3877 335.111 42.6436C335.48 41.8994 335.99 41.3252 336.64 40.9209C337.296 40.5166 338.044 40.3145 338.881 40.3145C340.176 40.3145 341.222 40.7627 342.019 41.6592C342.822 42.5557 343.223 43.748 343.223 45.2363V45.3506C343.223 46.2764 343.045 47.1084 342.687 47.8467C342.336 48.5791 341.829 49.1504 341.167 49.5605C340.51 49.9707 339.754 50.1758 338.899 50.1758C337.61 50.1758 336.564 49.7275 335.761 48.8311C334.964 47.9346 334.566 46.748 334.566 45.2715V45.1572ZM336.201 45.3506C336.201 46.4053 336.444 47.252 336.93 47.8906C337.422 48.5293 338.079 48.8486 338.899 48.8486C339.725 48.8486 340.381 48.5264 340.868 47.8818C341.354 47.2314 341.597 46.3232 341.597 45.1572C341.597 44.1143 341.348 43.2705 340.85 42.626C340.358 41.9756 339.702 41.6504 338.881 41.6504C338.079 41.6504 337.431 41.9697 336.939 42.6084C336.447 43.2471 336.201 44.1611 336.201 45.3506ZM347.468 38.1875V40.4902H349.244V41.7471H347.468V47.6445C347.468 48.0254 347.547 48.3125 347.706 48.5059C347.864 48.6934 348.133 48.7871 348.514 48.7871C348.702 48.7871 348.96 48.752 349.288 48.6816V50C348.86 50.1172 348.444 50.1758 348.04 50.1758C347.313 50.1758 346.765 49.9561 346.396 49.5166C346.027 49.0771 345.842 48.4531 345.842 47.6445V41.7471H344.111V40.4902H345.842V38.1875H347.468ZM357.022 50C356.928 49.8125 356.852 49.4785 356.794 48.998C356.038 49.7832 355.135 50.1758 354.087 50.1758C353.149 50.1758 352.378 49.9121 351.775 49.3848C351.177 48.8516 350.878 48.1777 350.878 47.3633C350.878 46.373 351.253 45.6055 352.003 45.0605C352.759 44.5098 353.82 44.2344 355.185 44.2344H356.767V43.4873C356.767 42.9189 356.597 42.4678 356.257 42.1338C355.918 41.7939 355.417 41.624 354.754 41.624C354.174 41.624 353.688 41.7705 353.295 42.0635C352.903 42.3564 352.707 42.7109 352.707 43.127H351.072C351.072 42.6523 351.239 42.1953 351.573 41.7559C351.913 41.3105 352.37 40.959 352.944 40.7012C353.524 40.4434 354.16 40.3145 354.851 40.3145C355.947 40.3145 356.805 40.5898 357.426 41.1406C358.047 41.6855 358.37 42.4385 358.393 43.3994V47.7764C358.393 48.6494 358.504 49.3438 358.727 49.8594V50H357.022ZM354.324 48.7607C354.834 48.7607 355.317 48.6289 355.774 48.3652C356.231 48.1016 356.562 47.7588 356.767 47.3369V45.3857H355.493C353.501 45.3857 352.504 45.9688 352.504 47.1348C352.504 47.6445 352.674 48.043 353.014 48.3301C353.354 48.6172 353.791 48.7607 354.324 48.7607ZM372.934 50C372.84 49.8125 372.764 49.4785 372.705 48.998C371.949 49.7832 371.047 50.1758 369.998 50.1758C369.061 50.1758 368.29 49.9121 367.687 49.3848C367.089 48.8516 366.79 48.1777 366.79 47.3633C366.79 46.373 367.165 45.6055 367.915 45.0605C368.671 44.5098 369.731 44.2344 371.097 44.2344H372.679V43.4873C372.679 42.9189 372.509 42.4678 372.169 42.1338C371.829 41.7939 371.328 41.624 370.666 41.624C370.086 41.624 369.6 41.7705 369.207 42.0635C368.814 42.3564 368.618 42.7109 368.618 43.127H366.983C366.983 42.6523 367.15 42.1953 367.484 41.7559C367.824 41.3105 368.281 40.959 368.855 40.7012C369.436 40.4434 370.071 40.3145 370.763 40.3145C371.858 40.3145 372.717 40.5898 373.338 41.1406C373.959 41.6855 374.281 42.4385 374.305 43.3994V47.7764C374.305 48.6494 374.416 49.3438 374.639 49.8594V50H372.934ZM370.235 48.7607C370.745 48.7607 371.229 48.6289 371.686 48.3652C372.143 48.1016 372.474 47.7588 372.679 47.3369V45.3857H371.404C369.412 45.3857 368.416 45.9688 368.416 47.1348C368.416 47.6445 368.586 48.043 368.926 48.3301C369.266 48.6172 369.702 48.7607 370.235 48.7607ZM378.62 50H376.994V40.4902H378.62V50ZM376.862 37.9678C376.862 37.7041 376.941 37.4814 377.1 37.2998C377.264 37.1182 377.504 37.0273 377.82 37.0273C378.137 37.0273 378.377 37.1182 378.541 37.2998C378.705 37.4814 378.787 37.7041 378.787 37.9678C378.787 38.2314 378.705 38.4512 378.541 38.627C378.377 38.8027 378.137 38.8906 377.82 38.8906C377.504 38.8906 377.264 38.8027 377.1 38.627C376.941 38.4512 376.862 38.2314 376.862 37.9678ZM120.102 71C120.008 70.8125 119.932 70.4785 119.873 69.998C119.117 70.7832 118.215 71.1758 117.166 71.1758C116.229 71.1758 115.458 70.9121 114.854 70.3848C114.257 69.8516 113.958 69.1777 113.958 68.3633C113.958 67.373 114.333 66.6055 115.083 66.0605C115.839 65.5098 116.899 65.2344 118.265 65.2344H119.847V64.4873C119.847 63.9189 119.677 63.4678 119.337 63.1338C118.997 62.7939 118.496 62.624 117.834 62.624C117.254 62.624 116.768 62.7705 116.375 63.0635C115.982 63.3564 115.786 63.7109 115.786 64.127H114.151C114.151 63.6523 114.318 63.1953 114.652 62.7559C114.992 62.3105 115.449 61.959 116.023 61.7012C116.604 61.4434 117.239 61.3145 117.931 61.3145C119.026 61.3145 119.885 61.5898 120.506 62.1406C121.127 62.6855 121.449 63.4385 121.473 64.3994V68.7764C121.473 69.6494 121.584 70.3438 121.807 70.8594V71H120.102ZM117.403 69.7607C117.913 69.7607 118.396 69.6289 118.854 69.3652C119.311 69.1016 119.642 68.7588 119.847 68.3369V66.3857H118.572C116.58 66.3857 115.584 66.9688 115.584 68.1348C115.584 68.6445 115.754 69.043 116.094 69.3301C116.434 69.6172 116.87 69.7607 117.403 69.7607ZM125.551 61.4902L125.595 62.5449C126.292 61.7246 127.232 61.3145 128.416 61.3145C129.746 61.3145 130.651 61.8242 131.132 62.8438C131.448 62.3867 131.858 62.0176 132.362 61.7363C132.872 61.4551 133.473 61.3145 134.164 61.3145C136.25 61.3145 137.311 62.4189 137.346 64.6279V71H135.72V64.7246C135.72 64.0449 135.564 63.5381 135.254 63.2041C134.943 62.8643 134.422 62.6943 133.689 62.6943C133.086 62.6943 132.585 62.876 132.187 63.2393C131.788 63.5967 131.557 64.0801 131.492 64.6895V71H129.857V64.7686C129.857 63.3857 129.181 62.6943 127.827 62.6943C126.761 62.6943 126.031 63.1484 125.639 64.0566V71H124.013V61.4902H125.551ZM139.42 66.166C139.42 64.6836 139.763 63.5059 140.448 62.6328C141.134 61.7539 142.042 61.3145 143.173 61.3145C144.333 61.3145 145.238 61.7246 145.889 62.5449L145.968 61.4902H147.453V70.7715C147.453 72.002 147.087 72.9717 146.354 73.6807C145.628 74.3896 144.649 74.7441 143.419 74.7441C142.733 74.7441 142.062 74.5977 141.406 74.3047C140.75 74.0117 140.249 73.6104 139.903 73.1006L140.747 72.125C141.444 72.9863 142.297 73.417 143.305 73.417C144.096 73.417 144.711 73.1943 145.15 72.749C145.596 72.3037 145.818 71.6768 145.818 70.8682V70.0508C145.168 70.8008 144.28 71.1758 143.155 71.1758C142.042 71.1758 141.14 70.7275 140.448 69.8311C139.763 68.9346 139.42 67.7129 139.42 66.166ZM141.055 66.3506C141.055 67.4229 141.274 68.2666 141.714 68.8818C142.153 69.4912 142.769 69.7959 143.56 69.7959C144.585 69.7959 145.338 69.3301 145.818 68.3984V64.0566C145.32 63.1484 144.573 62.6943 143.577 62.6943C142.786 62.6943 142.168 63.002 141.723 63.6172C141.277 64.2324 141.055 65.1436 141.055 66.3506ZM155.785 71C155.691 70.8125 155.615 70.4785 155.557 69.998C154.801 70.7832 153.898 71.1758 152.85 71.1758C151.912 71.1758 151.142 70.9121 150.538 70.3848C149.94 69.8516 149.642 69.1777 149.642 68.3633C149.642 67.373 150.017 66.6055 150.767 66.0605C151.522 65.5098 152.583 65.2344 153.948 65.2344H155.53V64.4873C155.53 63.9189 155.36 63.4678 155.021 63.1338C154.681 62.7939 154.18 62.624 153.518 62.624C152.938 62.624 152.451 62.7705 152.059 63.0635C151.666 63.3564 151.47 63.7109 151.47 64.127H149.835C149.835 63.6523 150.002 63.1953 150.336 62.7559C150.676 62.3105 151.133 61.959 151.707 61.7012C152.287 61.4434 152.923 61.3145 153.614 61.3145C154.71 61.3145 155.568 61.5898 156.189 62.1406C156.811 62.6855 157.133 63.4385 157.156 64.3994V68.7764C157.156 69.6494 157.268 70.3438 157.49 70.8594V71H155.785ZM153.087 69.7607C153.597 69.7607 154.08 69.6289 154.537 69.3652C154.994 69.1016 155.325 68.7588 155.53 68.3369V66.3857H154.256C152.264 66.3857 151.268 66.9688 151.268 68.1348C151.268 68.6445 151.438 69.043 151.777 69.3301C152.117 69.6172 152.554 69.7607 153.087 69.7607ZM156.91 57.7812C156.91 58.4141 156.729 58.9268 156.365 59.3193C156.008 59.7119 155.56 59.9082 155.021 59.9082C154.78 59.9082 154.572 59.8789 154.396 59.8203C154.221 59.7617 153.989 59.6416 153.702 59.46C153.421 59.2783 153.216 59.1699 153.087 59.1348C152.964 59.0938 152.82 59.0732 152.656 59.0732C152.416 59.0732 152.211 59.167 152.041 59.3545C151.871 59.5361 151.786 59.7705 151.786 60.0576L150.696 59.9961C150.696 59.3691 150.872 58.8506 151.224 58.4404C151.581 58.0303 152.032 57.8252 152.577 57.8252C152.782 57.8252 152.967 57.8545 153.131 57.9131C153.295 57.9717 153.518 58.0859 153.799 58.2559C154.08 58.4258 154.294 58.5371 154.44 58.5898C154.593 58.6426 154.76 58.6689 154.941 58.6689C155.193 58.6689 155.401 58.5693 155.565 58.3701C155.735 58.1709 155.82 57.9395 155.82 57.6758L156.91 57.7812ZM159.274 66.1572C159.274 65.2256 159.456 64.3877 159.819 63.6436C160.188 62.8994 160.698 62.3252 161.349 61.9209C162.005 61.5166 162.752 61.3145 163.59 61.3145C164.885 61.3145 165.931 61.7627 166.728 62.6592C167.53 63.5557 167.932 64.748 167.932 66.2363V66.3506C167.932 67.2764 167.753 68.1084 167.396 68.8467C167.044 69.5791 166.537 70.1504 165.875 70.5605C165.219 70.9707 164.463 71.1758 163.607 71.1758C162.318 71.1758 161.272 70.7275 160.47 69.8311C159.673 68.9346 159.274 67.748 159.274 66.2715V66.1572ZM160.909 66.3506C160.909 67.4053 161.152 68.252 161.639 68.8906C162.131 69.5293 162.787 69.8486 163.607 69.8486C164.434 69.8486 165.09 69.5264 165.576 68.8818C166.062 68.2314 166.306 67.3232 166.306 66.1572C166.306 65.1143 166.057 64.2705 165.559 63.626C165.066 62.9756 164.41 62.6504 163.59 62.6504C162.787 62.6504 162.14 62.9697 161.647 63.6084C161.155 64.2471 160.909 65.1611 160.909 66.3506Z" fill="#F5F5F5"/>
</svg>
